<svg xmlns="http://www.w3.org/2000/svg" xmlns:xlink="http://www.w3.org/1999/xlink" width="758" height="597" viewBox="0 0 758 597">
  <defs>
    <clipPath id="clip-path">
      <rect id="Rectangle_7" data-name="Rectangle 7" width="482" height="471" transform="translate(438 341)"/>
    </clipPath>
    <clipPath id="clip-path-2">
      <rect id="Rectangle_6" data-name="Rectangle 6" width="482" height="471"/>
    </clipPath>
    <clipPath id="clip-pencil_sub_menu">
      <rect width="758" height="597"/>
    </clipPath>
  </defs>
  <g id="pencil_sub_menu" clip-path="url(#clip-pencil_sub_menu)">
    <g id="SS_16" data-name="SS – 16" transform="translate(125 31)" clip-path="url(#clip-path)">
      <path id="pen" d="M173.451,47.3,164.041,57,134.013,27.9l11.642-11.3a13.989,13.989,0,0,1,4.527-2.963c7.092-3.07,17.611-.752,23.269,4.9,6.874,6.872,6.791,13.874,2.807,24.255l-2.8,4.511ZM61,159.84,11.983,178.02,30.2,131.074l99.589-99.3L159.238,59.62,60.992,159.84ZM176.258,13.754a26.549,26.549,0,0,0-37.5,0L25.136,127.376a4.207,4.207,0,0,0-1.034,1.631L6.28,178.02a4.42,4.42,0,0,0,4.188,5.971,4.487,4.487,0,0,0,1.515-.267L61,165.9a4.464,4.464,0,0,0,1.64-1.034L176.258,51.245a26.549,26.549,0,0,0,0-37.5v.009Z" transform="translate(146.001 140.999)" fill="#1a1a1a" fill-rule="evenodd"/>
    </g>
    <g id="PEN-2" data-name="PEN" transform="translate(178 56)" clip-path="url(#clip-path-2)">
      <g id="Group_132" data-name="Group 132" transform="translate(94 -257)">
        <path id="Icon_open-pencil" data-name="Icon open-pencil" d="M150.09,5.622C129.113.13,106.353,28.993,106.353,28.993l53.176,53.176,12.133-12.322c7.683-7.8,15.844-19.842,10.451-35.9a61.93,61.93,0,0,0-8.037-16.075C170.958,13.077,163.18,9.048,150.09,5.622ZM106.353,28.993,0,135.346v53.176H53.176L159.529,82.169Z" transform="translate(59 403)" fill="none" stroke="#000" stroke-linecap="round" stroke-width="8.6"/>
      </g>
    </g>
  </g>
</svg>
